<svg width="165" height="24" viewBox="0 0 165 24" fill="none" xmlns="http://www.w3.org/2000/svg">
<path d="M6.05859 11.2617H4.11328V18.0117H0V0.949219H4.11328V7.54688H5.69531L8.97656 0.949219H13.957L9.26953 8.82422L14.543 18.0117H9.67969L6.05859 11.2617Z" fill="white"/>
<path d="M22.7578 5.33203H26.7188V18.0117H22.7578V10.6289L19.2773 18.0117H15.3047V5.33203H19.2773V12.6914L22.7578 5.33203Z" fill="white"/>
<path d="M40.125 18.0117H36.1641V13.3125H32.707V18.0117H28.7578V5.33203H32.707V10.2773H36.1641V5.33203H40.125V18.0117Z" fill="white"/>
<path d="M41.7891 11.5547C41.7891 10.2891 42.0352 9.16406 42.5273 8.17969C43.0195 7.1875 43.7266 6.42578 44.6484 5.89453C45.5703 5.36328 46.6523 5.09766 47.8945 5.09766C49.793 5.09766 51.2891 5.6875 52.3828 6.86719C53.4766 8.03906 54.0234 9.63672 54.0234 11.6602V11.8008C54.0234 13.7773 53.4727 15.3477 52.3711 16.5117C51.2773 17.668 49.793 18.2461 47.918 18.2461C46.1133 18.2461 44.6641 17.707 43.5703 16.6289C42.4766 15.543 41.8867 14.0742 41.8008 12.2227L41.7891 11.5547ZM45.7383 11.8008C45.7383 12.9727 45.9219 13.832 46.2891 14.3789C46.6562 14.9258 47.1992 15.1992 47.918 15.1992C49.3242 15.1992 50.043 14.1172 50.0742 11.9531V11.5547C50.0742 9.28125 49.3477 8.14453 47.8945 8.14453C46.5742 8.14453 45.8594 9.125 45.75 11.0859L45.7383 11.8008Z" fill="white"/>
<path d="M66.5156 8.35547H62.5195V18.0117H58.5469V8.35547H54.6094V5.33203H66.5156V8.35547Z" fill="white"/>
<path d="M73.3828 18.2461C71.4375 18.2461 69.8633 17.668 68.6602 16.5117C67.457 15.3477 66.8555 13.8359 66.8555 11.9766V11.6484C66.8555 10.3516 67.0938 9.20703 67.5703 8.21484C68.0547 7.22266 68.7578 6.45703 69.6797 5.91797C70.6016 5.37109 71.6953 5.09766 72.9609 5.09766C74.7422 5.09766 76.1484 5.65234 77.1797 6.76172C78.2109 7.86328 78.7266 9.40234 78.7266 11.3789V12.9141H70.875C71.0156 13.625 71.3242 14.1836 71.8008 14.5898C72.2773 14.9961 72.8945 15.1992 73.6523 15.1992C74.9023 15.1992 75.8789 14.7617 76.582 13.8867L78.3867 16.0195C77.8945 16.6992 77.1953 17.2422 76.2891 17.6484C75.3906 18.0469 74.4219 18.2461 73.3828 18.2461ZM72.9375 8.14453C71.7812 8.14453 71.0938 8.91016 70.875 10.4414H74.8594V10.1367C74.875 9.50391 74.7148 9.01562 74.3789 8.67188C74.043 8.32031 73.5625 8.14453 72.9375 8.14453Z" fill="white"/>
<path d="M87.4688 18.0117C87.3281 17.7539 87.2031 17.375 87.0938 16.875C86.3672 17.7891 85.3516 18.2461 84.0469 18.2461C82.8516 18.2461 81.8359 17.8867 81 17.168C80.1641 16.4414 79.7461 15.5312 79.7461 14.4375C79.7461 13.0625 80.2539 12.0234 81.2695 11.3203C82.2852 10.6172 83.7617 10.2656 85.6992 10.2656H86.918V9.59766C86.918 8.43359 86.4141 7.85156 85.4062 7.85156C84.4688 7.85156 84 8.3125 84 9.23438H80.0508C80.0508 8.00781 80.5703 7.01172 81.6094 6.24609C82.6562 5.48047 83.9883 5.09766 85.6055 5.09766C87.2227 5.09766 88.5 5.49219 89.4375 6.28125C90.375 7.07031 90.8555 8.15234 90.8789 9.52734V15.1406C90.8945 16.3047 91.0742 17.1953 91.418 17.8125V18.0117H87.4688ZM84.9961 15.4336C85.4883 15.4336 85.8945 15.3281 86.2148 15.1172C86.543 14.9062 86.7773 14.668 86.918 14.4023V12.375H85.7695C84.3945 12.375 83.707 12.9922 83.707 14.2266C83.707 14.5859 83.8281 14.8789 84.0703 15.1055C84.3125 15.3242 84.6211 15.4336 84.9961 15.4336Z" fill="white"/>
<path d="M103.992 8.35547H99.9961V18.0117H96.0234V8.35547H92.0859V5.33203H103.992V8.35547Z" fill="white"/>
<path d="M117.246 11.7656C117.246 13.7344 116.801 15.3086 115.91 16.4883C115.027 17.6602 113.832 18.2461 112.324 18.2461C111.16 18.2461 110.203 17.8203 109.453 16.9688V22.8867H105.504V5.33203H109.195L109.312 6.50391C110.07 5.56641 111.066 5.09766 112.301 5.09766C113.863 5.09766 115.078 5.67578 115.945 6.83203C116.812 7.98047 117.246 9.5625 117.246 11.5781V11.7656ZM113.297 11.5195C113.297 9.26953 112.641 8.14453 111.328 8.14453C110.391 8.14453 109.766 8.48047 109.453 9.15234V14.1445C109.797 14.8477 110.43 15.1992 111.352 15.1992C112.609 15.1992 113.258 14.1133 113.297 11.9414V11.5195Z" fill="white"/>
<path d="M133.957 13.4766C133.957 12.875 133.742 12.4062 133.312 12.0703C132.891 11.7344 132.145 11.3867 131.074 11.0273C130.004 10.668 129.129 10.3203 128.449 9.98438C126.238 8.89844 125.133 7.40625 125.133 5.50781C125.133 4.5625 125.406 3.73047 125.953 3.01172C126.508 2.28516 127.289 1.72266 128.297 1.32422C129.305 0.917969 130.438 0.714844 131.695 0.714844C132.922 0.714844 134.02 0.933594 134.988 1.37109C135.965 1.80859 136.723 2.43359 137.262 3.24609C137.801 4.05078 138.07 4.97266 138.07 6.01172H133.969C133.969 5.31641 133.754 4.77734 133.324 4.39453C132.902 4.01172 132.328 3.82031 131.602 3.82031C130.867 3.82031 130.285 3.98438 129.855 4.3125C129.434 4.63281 129.223 5.04297 129.223 5.54297C129.223 5.98047 129.457 6.37891 129.926 6.73828C130.395 7.08984 131.219 7.45703 132.398 7.83984C133.578 8.21484 134.547 8.62109 135.305 9.05859C137.148 10.1211 138.07 11.5859 138.07 13.4531C138.07 14.9453 137.508 16.1172 136.383 16.9688C135.258 17.8203 133.715 18.2461 131.754 18.2461C130.371 18.2461 129.117 18 127.992 17.5078C126.875 17.0078 126.031 16.3281 125.461 15.4688C124.898 14.6016 124.617 13.6055 124.617 12.4805H128.742C128.742 13.3945 128.977 14.0703 129.445 14.5078C129.922 14.9375 130.691 15.1523 131.754 15.1523C132.434 15.1523 132.969 15.0078 133.359 14.7188C133.758 14.4219 133.957 14.0078 133.957 13.4766Z" fill="white"/>
<path d="M145.09 13.2891L143.977 14.4023V18.0117H140.027V0H143.977V9.5625L144.375 9.03516L147.352 5.33203H152.086L147.645 10.5469L152.379 18.0117H147.855L145.09 13.2891Z" fill="white"/>
<path d="M158.191 12.4805L160.301 5.33203H164.531L159.363 20.1328L159.141 20.6719C158.406 22.3125 157.109 23.1328 155.25 23.1328C154.734 23.1328 154.191 23.0547 153.621 22.8984V20.0742H154.137C154.691 20.0742 155.113 19.9922 155.402 19.8281C155.699 19.6719 155.918 19.3867 156.059 18.9727L156.375 18.1289L151.969 5.33203H156.188L158.191 12.4805Z" fill="white"/>
</svg>
